<svg width="20" height="16" viewBox="0 0 20 16" fill="none" xmlns="http://www.w3.org/2000/svg">
<g id="3 User">
<path id="Stroke 1" d="M14.6624 7.09964C15.9977 7.09964 17.0809 6.01721 17.0809 4.68193C17.0809 3.34665 15.9977 2.26422 14.6624 2.26422" stroke="#6B788E" stroke-width="1.5" stroke-linecap="round" stroke-linejoin="round"/>
<path id="Stroke 3" d="M15.7742 9.72705C16.173 9.75455 16.5694 9.81108 16.9598 9.89893C17.5021 10.0051 18.1545 10.2274 18.3867 10.714C18.5349 11.0257 18.5349 11.3885 18.3867 11.7009C18.1553 12.1875 17.5021 12.4091 16.9598 12.5206" stroke="#6B788E" stroke-width="1.5" stroke-linecap="round" stroke-linejoin="round"/>
<path id="Stroke 5" d="M5.24165 7.09964C3.90638 7.09964 2.82318 6.01721 2.82318 4.68193C2.82318 3.34665 3.90638 2.26422 5.24165 2.26422" stroke="#6B788E" stroke-width="1.5" stroke-linecap="round" stroke-linejoin="round"/>
<path id="Stroke 7" d="M4.12983 9.72705C3.73108 9.75455 3.33462 9.81108 2.94427 9.89893C2.40191 10.0051 1.74955 10.2274 1.51809 10.714C1.36913 11.0257 1.36913 11.3885 1.51809 11.7009C1.74879 12.1875 2.40191 12.4091 2.94427 12.5206" stroke="#6B788E" stroke-width="1.5" stroke-linecap="round" stroke-linejoin="round"/>
<path id="Stroke 9" fill-rule="evenodd" clip-rule="evenodd" d="M9.94813 10.2477C12.6538 10.2477 14.9654 10.6572 14.9654 12.2957C14.9654 13.9335 12.6691 14.3582 9.94813 14.3582C7.24167 14.3582 4.93091 13.9488 4.93091 12.3102C4.93091 10.6717 7.22716 10.2477 9.94813 10.2477Z" stroke="#6B788E" stroke-width="1.5" stroke-linecap="round" stroke-linejoin="round"/>
<path id="Stroke 11" fill-rule="evenodd" clip-rule="evenodd" d="M9.94812 7.91052C8.16367 7.91052 6.73291 6.47976 6.73291 4.69455C6.73291 2.9101 8.16367 1.47934 9.94812 1.47934C11.7326 1.47934 13.1633 2.9101 13.1633 4.69455C13.1633 6.47976 11.7326 7.91052 9.94812 7.91052Z" stroke="#6B788E" stroke-width="1.5" stroke-linecap="round" stroke-linejoin="round"/>
</g>
</svg>
