<svg width="20" height="21" viewBox="0 0 20 21" fill="none" xmlns="http://www.w3.org/2000/svg">
<g id="vuesax/linear/briefcase">
<g id="briefcase">
<path id="Vector" d="M6.66667 19.3231H13.3333C16.6833 19.3231 17.2833 17.9814 17.4583 16.3481L18.0833 9.68141C18.3083 7.64808 17.725 5.98975 14.1667 5.98975H5.83333C2.275 5.98975 1.69166 7.64808 1.91666 9.68141L2.54166 16.3481C2.71666 17.9814 3.31666 19.3231 6.66667 19.3231Z" stroke="#6B788E" stroke-width="1.2" stroke-miterlimit="10" stroke-linecap="round" stroke-linejoin="round"/>
<path id="Vector_2" d="M6.66669 5.98974V5.32307C6.66669 3.84807 6.66669 2.6564 9.33335 2.6564H10.6667C13.3334 2.6564 13.3334 3.84807 13.3334 5.32307V5.98974" stroke="#6B788E" stroke-width="1.2" stroke-miterlimit="10" stroke-linecap="round" stroke-linejoin="round"/>
<path id="Vector_3" d="M11.6666 11.8231V12.6564C11.6666 12.6647 11.6666 12.6647 11.6666 12.6731C11.6666 13.5814 11.6583 14.3231 9.99998 14.3231C8.34998 14.3231 8.33331 13.5897 8.33331 12.6814V11.8231C8.33331 10.9897 8.33331 10.9897 9.16665 10.9897H10.8333C11.6666 10.9897 11.6666 10.9897 11.6666 11.8231Z" stroke="#6B788E" stroke-width="1.2" stroke-miterlimit="10" stroke-linecap="round" stroke-linejoin="round"/>
<path id="Vector_4" d="M18.0417 10.1564C16.1167 11.5564 13.9167 12.3897 11.6667 12.6731" stroke="#6B788E" stroke-width="1.2" stroke-miterlimit="10" stroke-linecap="round" stroke-linejoin="round"/>
<path id="Vector_5" d="M2.18335 10.3814C4.05835 11.6647 6.17502 12.4397 8.33335 12.6814" stroke="#6B788E" stroke-width="1.2" stroke-miterlimit="10" stroke-linecap="round" stroke-linejoin="round"/>
</g>
</g>
</svg>
