<svg width="20" height="21" viewBox="0 0 20 21" fill="none" xmlns="http://www.w3.org/2000/svg">
<g id="vuesax/linear/element-3">
<g id="element-3">
<path id="Vector" d="M18.3333 7.59999V3.81666C18.3333 2.64166 17.8 2.16666 16.475 2.16666H13.1083C11.7833 2.16666 11.25 2.64166 11.25 3.81666V7.59166C11.25 8.77499 11.7833 9.24166 13.1083 9.24166H16.475C17.8 9.24999 18.3333 8.77499 18.3333 7.59999Z" stroke="#858585" stroke-width="1.5" stroke-linecap="round" stroke-linejoin="round"/>
<path id="Vector_2" d="M18.3333 16.975V13.6083C18.3333 12.2833 17.8 11.75 16.475 11.75H13.1083C11.7833 11.75 11.25 12.2833 11.25 13.6083V16.975C11.25 18.3 11.7833 18.8333 13.1083 18.8333H16.475C17.8 18.8333 18.3333 18.3 18.3333 16.975Z" stroke="#858585" stroke-width="1.5" stroke-linecap="round" stroke-linejoin="round"/>
<path id="Vector_3" d="M8.75002 7.59999V3.81666C8.75002 2.64166 8.21669 2.16666 6.89169 2.16666H3.52502C2.20002 2.16666 1.66669 2.64166 1.66669 3.81666V7.59166C1.66669 8.77499 2.20002 9.24166 3.52502 9.24166H6.89169C8.21669 9.24999 8.75002 8.77499 8.75002 7.59999Z" stroke="#858585" stroke-width="1.5" stroke-linecap="round" stroke-linejoin="round"/>
<path id="Vector_4" d="M8.75002 16.975V13.6083C8.75002 12.2833 8.21669 11.75 6.89169 11.75H3.52502C2.20002 11.75 1.66669 12.2833 1.66669 13.6083V16.975C1.66669 18.3 2.20002 18.8333 3.52502 18.8333H6.89169C8.21669 18.8333 8.75002 18.3 8.75002 16.975Z" stroke="#858585" stroke-width="1.5" stroke-linecap="round" stroke-linejoin="round"/>
</g>
</g>
</svg>
