<svg width="16" height="16" viewBox="0 0 16 16" fill="none" xmlns="http://www.w3.org/2000/svg">
<g id="help-circle" clip-path="url(#clip0_28_1943)">
<path id="Icon" d="M6.06001 6.00001C6.21675 5.55446 6.52611 5.17875 6.93331 4.93943C7.34052 4.70012 7.81927 4.61264 8.28479 4.69248C8.75032 4.77233 9.17255 5.01436 9.47673 5.3757C9.7809 5.73703 9.94738 6.19436 9.94668 6.66668C9.94668 8.00001 7.94668 8.66668 7.94668 8.66668M8.00001 11.3333H8.00668M14.6667 8.00001C14.6667 11.6819 11.6819 14.6667 8.00001 14.6667C4.31811 14.6667 1.33334 11.6819 1.33334 8.00001C1.33334 4.31811 4.31811 1.33334 8.00001 1.33334C11.6819 1.33334 14.6667 4.31811 14.6667 8.00001Z" stroke="#98A2B3" stroke-width="1.33333" stroke-linecap="round" stroke-linejoin="round"/>
</g>
<defs>
<clipPath id="clip0_28_1943">
<rect width="16" height="16" fill="white"/>
</clipPath>
</defs>
</svg>
