<svg width="14" height="14" viewBox="0 0 14 14" fill="none" xmlns="http://www.w3.org/2000/svg">
<g id="Logout">
<path id="Logout_2" fill-rule="evenodd" clip-rule="evenodd" d="M1.33341 8.28901C1.33341 8.55818 1.1094 8.77669 0.833457 8.77669C0.557511 8.77669 0.333508 8.55818 0.333508 8.28901V3.46598C0.333508 1.91679 1.62558 0.656403 3.21438 0.656403H6.37835C7.97039 0.656403 9.26571 1.91995 9.26571 3.47295V4.06261C9.26571 4.33115 9.04171 4.54966 8.76576 4.54966C8.48982 4.54966 8.26581 4.33115 8.26581 4.06261V3.47295C8.26581 2.45704 7.41915 1.63177 6.37835 1.63177H3.21438C2.17683 1.63177 1.33341 2.45514 1.33341 3.46598V8.28901ZM8.26562 9.9175C8.26562 9.64832 8.48962 9.42981 8.76557 9.42981C9.04152 9.42981 9.26552 9.64832 9.26552 9.9175V10.5135C9.26552 12.0627 7.97344 13.3231 6.38464 13.3231H3.22003C1.62864 13.3231 0.333313 12.0595 0.333313 10.5065C0.333313 10.2373 0.557316 10.0195 0.833262 10.0195C1.10921 10.0195 1.33321 10.2373 1.33321 10.5065C1.33321 11.5224 2.17988 12.3477 3.22003 12.3477H6.38464C7.4222 12.3477 8.26562 11.525 8.26562 10.5135V9.9175ZM13.6288 6.80366C13.5516 6.62061 13.3691 6.50154 13.1665 6.50154H5.36605C5.0901 6.50154 4.86545 6.72069 4.86545 6.98986C4.86545 7.25904 5.0901 7.47755 5.36605 7.47755H11.9563L10.9168 8.48712C10.7207 8.67713 10.7207 8.98558 10.9155 9.17685C11.0129 9.27249 11.1414 9.32062 11.2693 9.32062C11.3972 9.32062 11.5245 9.27249 11.6226 9.17812L13.5198 7.33568C13.6626 7.19634 13.7061 6.98606 13.6288 6.80366ZM11.7479 6.09689C11.6206 6.09689 11.4933 6.04939 11.3959 5.95565L10.9174 5.49393C10.7213 5.30456 10.72 4.99548 10.9142 4.80484C11.109 4.6123 11.4245 4.61103 11.6213 4.80104L12.0991 5.26212C12.2959 5.45213 12.2972 5.76058 12.103 5.95185C12.005 6.04812 11.8764 6.09689 11.7479 6.09689Z" fill="#091E42"/>
</g>
</svg>
