<svg width="14" height="15" viewBox="0 0 14 15" fill="none" xmlns="http://www.w3.org/2000/svg">
<g id="Search">
<path id="Search_2" d="M13.5037 13.2377L11.2121 10.9972L11.1584 10.9155C11.0585 10.8161 10.922 10.7601 10.7795 10.7601C10.6369 10.7601 10.5004 10.8161 10.4005 10.9155C8.453 12.7022 5.45211 12.7994 3.38801 11.1425C1.32392 9.48563 0.837122 6.58892 2.25047 4.37346C3.66381 2.15799 6.53872 1.31124 8.96858 2.39477C11.3984 3.47829 12.6292 6.15587 11.8447 8.65174C11.7882 8.83205 11.8344 9.02813 11.9658 9.16612C12.0973 9.30411 12.2941 9.36305 12.482 9.32074C12.67 9.27842 12.8206 9.14128 12.8771 8.96097C13.8149 5.99911 12.3985 2.81171 9.54409 1.46072C6.68967 0.109718 3.2539 1.00056 1.45938 3.55695C-0.335143 6.11335 0.0501296 9.56811 2.36596 11.6863C4.6818 13.8046 8.2332 13.9506 10.7228 12.0299L12.7518 14.0137C12.9613 14.2177 13.3001 14.2177 13.5097 14.0137C13.719 13.8068 13.719 13.4737 13.5097 13.2669L13.5037 13.2377Z" fill="#667085"/>
</g>
</svg>
