<svg width="20" height="20" viewBox="0 0 20 20" fill="none" xmlns="http://www.w3.org/2000/svg">
<path d="M14.6624 9.10989C15.9977 9.10989 17.0809 8.02746 17.0809 6.69218C17.0809 5.35691 15.9977 4.27448 14.6624 4.27448" stroke="#9A1E1E" stroke-width="1.5" stroke-linecap="round" stroke-linejoin="round"/>
<path d="M15.7742 11.7373C16.173 11.7648 16.5694 11.8213 16.9598 11.9092C17.5021 12.0154 18.1545 12.2377 18.3867 12.7242C18.5349 13.0359 18.5349 13.3988 18.3867 13.7112C18.1553 14.1978 17.5021 14.4193 16.9598 14.5308" stroke="#9A1E1E" stroke-width="1.5" stroke-linecap="round" stroke-linejoin="round"/>
<path d="M5.24165 9.10989C3.90638 9.10989 2.82318 8.02746 2.82318 6.69218C2.82318 5.35691 3.90638 4.27448 5.24165 4.27448" stroke="#9A1E1E" stroke-width="1.5" stroke-linecap="round" stroke-linejoin="round"/>
<path d="M4.12983 11.7373C3.73108 11.7648 3.33462 11.8213 2.94427 11.9092C2.40191 12.0154 1.74955 12.2377 1.51809 12.7242C1.36913 13.0359 1.36913 13.3988 1.51809 13.7112C1.74879 14.1978 2.40191 14.4193 2.94427 14.5308" stroke="#9A1E1E" stroke-width="1.5" stroke-linecap="round" stroke-linejoin="round"/>
<path fill-rule="evenodd" clip-rule="evenodd" d="M9.94813 12.258C12.6538 12.258 14.9654 12.6674 14.9654 14.306C14.9654 15.9437 12.6691 16.3685 9.94813 16.3685C7.24167 16.3685 4.93091 15.959 4.93091 14.3205C4.93091 12.6819 7.22716 12.258 9.94813 12.258Z" stroke="#9A1E1E" stroke-width="1.5" stroke-linecap="round" stroke-linejoin="round"/>
<path fill-rule="evenodd" clip-rule="evenodd" d="M9.94812 9.92077C8.16367 9.92077 6.73291 8.49001 6.73291 6.7048C6.73291 4.92036 8.16367 3.48959 9.94812 3.48959C11.7326 3.48959 13.1633 4.92036 13.1633 6.7048C13.1633 8.49001 11.7326 9.92077 9.94812 9.92077Z" stroke="#9A1E1E" stroke-width="1.5" stroke-linecap="round" stroke-linejoin="round"/>
</svg>
